#!OML:ASF I:\golf\golf\golf 2\Subject 1\2002-09-07\Subject1.ASF
:FULLY-SPECIFIED
:DEGREES
173
root -6.06463 17.9589 3.65372 4.01277 35.4873 -7.63149
lowerback -0.251845 -11.284 -16.0194
upperback -2.11694 -14.9436 -3.90255
thorax 0.784733 -7.2596 3.90794
lowerneck -6.06669 22.1701 0.163493
upperneck 10.7519 32.0391 -13.8128
head 6.60493 14.613 -1.41172
rclavicle 1.39547e-013 -5.725e-014
rhumerus 24.8399 -21.6046 -67.4453
rradius 108.396
rwrist 0.922215
rhand -60.686 31.5371
rfingers 7.12502
rthumb -32.8046 4.49592
lclavicle 1.39547e-013 -5.725e-014
lhumerus 109.967 -44.6538 42.5437
lradius 35.3758
lwrist -2.13279
lhand -23.5931 -2.11475
lfingers 7.12502
lthumb -177.13 -152.154
rfemur -25.1496 15.5058 25.4899
rtibia 29.3198
rfoot -2.46551 25.696
rtoes 36.4474
lfemur 1.69103 16.4101 4.79289
ltibia 31.9698
lfoot 15.4023 13.582
ltoes -33.7905
174
root -6.05603 17.9635 3.66763 4.15232 35.2422 -7.54102
lowerback -0.312746 -11.2726 -15.9076
upperback -2.15127 -14.9218 -3.93026
thorax 0.743578 -7.24633 3.82443
lowerneck -6.05493 22.1793 0.2557
upperneck 10.4933 32.0159 -13.9624
head 6.55714 14.6169 -1.4726
rclavicle -5.96354e-015 6.67916e-014
rhumerus 25.437 -22.038 -66.7136
rradius 108.69
rwrist 1.41369
rhand -60.8124 31.6991
rfingers 7.12502
rthumb -32.9249 4.68304
lclavicle -5.96354e-015 6.67916e-014
lhumerus 110.483 -44.3073 42.5843
lradius 35.7557
lwrist -2.10924
lhand -23.8884 -2.66477
lfingers 7.12502
lthumb -177.415 -152.701
rfemur -25.1807 15.3556 25.4772
rtibia 29.303
rfoot -2.97235 26.2722
rtoes 34.0499
lfemur 1.79315 16.3365 4.72429
ltibia 31.8787
lfoot 15.5317 13.6508
ltoes -33.4954
175
root -6.04992 17.9693 3.67801 4.33399 34.9678 -7.40666
lowerback -0.297293 -11.2228 -15.8573
upperback -2.27776 -14.8758 -3.97543
thorax 0.56637 -7.2073 3.78458
lowerneck -5.98198 22.1891 0.439827
upperneck 10.4948 32.0115 -13.9447
head 6.56952 14.6264 -1.48981
rclavicle 4.37326e-014 2.54444e-014
rhumerus 25.8204 -22.4628 -65.952
rradius 108.977
rwrist 1.83357
rhand -60.8532 32.0636
rfingers 7.12502
rthumb -32.9637 5.05577
lclavicle 4.37326e-014 2.54444e-014
lhumerus 110.921 -44.1277 42.5976
lradius 36.1474
lwrist -2.23378
lhand -24.4112 -2.96032
lfingers 7.12502
lthumb -177.92 -152.991
rfemur -25.2435 15.4519 25.374
rtibia 29.2651
rfoot -2.68901 26.4181
rtoes 34.1875
lfemur 1.86986 16.1715 4.5626
ltibia 31.8178
lfoot 15.5059 13.9807
ltoes -32.9146
176
root -6.04667 17.9741 3.68342 4.50159 34.6996 -7.40029
lowerback -0.336865 -11.1935 -15.7661
upperback -2.38701 -14.8449 -3.93341
thorax 0.454972 -7.18249 3.79553
lowerneck -6.09471 22.245 0.486467
upperneck 10.6899 32.1054 -13.7944
head 6.6381 14.6605 -1.42015
rclavicle 4.05521e-014 3.49861e-014
rhumerus 26.2732 -22.8604 -65.2519
rradius 109.196
rwrist 2.24704
rhand -60.8646 32.4357
rfingers 7.12502
rthumb -32.9746 5.4301
lclavicle 4.05521e-014 3.49861e-014
lhumerus 111.382 -43.7755 42.5985
lradius 36.5218
lwrist -2.15245
lhand -24.6648 -2.95879
lfingers 7.12502
lthumb -178.165 -152.987
rfemur -25.3978 15.6026 25.3395
rtibia 29.2195
rfoot -1.95608 26.4467
rtoes 36.0379
lfemur 1.85073 16.061 4.50717
ltibia 31.7416
lfoot 15.9783 13.7781
ltoes -33.6207
177
root -6.04344 17.9777 3.68906 4.53181 34.479 -7.48892
lowerback -0.357204 -11.1746 -15.6802
upperback -2.3858 -14.8191 -3.84081
thorax 0.46797 -7.17377 3.84669
lowerneck -6.23555 22.2868 0.344468
upperneck 10.6212 32.1504 -13.7265
head 6.60827 14.6811 -1.37609
rclavicle -1.86858e-014 -5.08889e-014
rhumerus 26.9188 -23.2952 -64.7194
rradius 109.359
rwrist 2.80939
rhand -60.8506 32.1528
rfingers 7.12502
rthumb -32.9613 5.14439
lclavicle -1.86858e-014 -5.08889e-014
lhumerus 111.936 -43.199 42.5324
lradius 36.8454
lwrist -1.91498
lhand -24.7775 -3.1273
lfingers 7.12502
lthumb -178.274 -153.155
rfemur -25.4414 15.8053 25.4162
rtibia 29.1696
rfoot -2.31576 26.5134
rtoes 34.6614
lfemur 1.92226 15.978 4.58661
ltibia 31.6272
lfoot 16.4901 13.424
ltoes -34.4488
178
root -6.03814 17.9836 3.69695 4.59969 34.2544 -7.37043
lowerback -0.317916 -11.1112 -15.7557
upperback -2.40347 -14.7457 -3.86404
thorax 0.425462 -7.133 3.87864
lowerneck -6.0079 22.2352 0.447592
upperneck 10.3199 32.0244 -13.883
head 6.50765 14.6532 -1.48116
rclavicle -7.07673e-014 -5.08889e-014
rhumerus 27.3152 -23.8089 -64.1456
rradius 109.473
rwrist 3.34027
rhand -60.824 31.6156
rfingers 7.12502
rthumb -32.9359 4.60189
lclavicle -7.07673e-014 -5.08889e-014
lhumerus 112.498 -42.8193 42.3715
lradius 37.0571
lwrist -1.92537
lhand -25.2817 -3.33417
lfingers 7.12502
lthumb -178.761 -153.358
rfemur -25.3627 16.0122 25.3337
rtibia 29.1069
rfoot -2.87582 26.5249
rtoes 32.6542
lfemur 2.08995 15.8338 4.4762
ltibia 31.4955
lfoot 16.4804 13.6682
ltoes -33.7279
179
root -6.03215 17.9916 3.70335 4.83334 34.026 -7.07917
lowerback -0.300255 -11.0949 -15.9556
upperback -2.46634 -14.7337 -3.87905
thorax 0.387339 -7.1183 3.96898
lowerneck -5.9934 22.2411 0.461857
upperneck 10.2518 32.0277 -13.9469
head 6.49692 14.6571 -1.50248
rclavicle -5.96354e-015 6.67916e-014
rhumerus 27.669 -24.0703 -63.5569
rradius 109.475
rwrist 3.89934
rhand -61.0329 31.0318
rfingers 7.12502
rthumb -33.1346 4.06011
lclavicle -5.96354e-015 6.67916e-014
lhumerus 112.952 -42.3792 42.2467
lradius 37.1151
lwrist -1.78923
lhand -25.9801 -3.64515
lfingers 7.12502
lthumb -179.435 -153.666
rfemur -25.3728 16.1932 25.05
rtibia 29.0291
rfoot -2.63435 26.4968
rtoes 33.1943
lfemur 2.16641 15.7584 4.16938
ltibia 31.3568
lfoot 16.602 13.8214
ltoes -33.267
180
root -6.02801 17.998 3.70619 5.04035 33.831 -6.92867
lowerback -0.365737 -11.0982 -16.0649
upperback -2.4742 -14.7249 -3.83527
thorax 0.449955 -7.11639 4.05011
lowerneck -6.20115 22.3292 0.315994
upperneck 10.25 32.158 -13.8963
head 6.50841 14.7062 -1.43939
rclavicle 1.70955e-014 2.54444e-014
rhumerus 28.0875 -24.2705 -63.019
rradius 109.453
rwrist 4.53143
rhand -61.4428 30.0292
rfingers 7.12502
rthumb -33.5243 3.14115
lclavicle 1.70955e-014 2.54444e-014
lhumerus 113.363 -41.9313 42.2512
lradius 37.1415
lwrist -1.43356
lhand -26.3351 -4.0303
lfingers 7.12502
lthumb -179.778 -154.051
rfemur -25.4731 16.4402 24.8508
rtibia 28.9585
rfoot -2.18652 26.3787
rtoes 34.202
lfemur 2.16672 15.7852 3.98246
ltibia 31.2149
lfoot 17.175 13.3873
ltoes -34.3164
181
root -6.02523 18.0019 3.70844 5.0921 33.6194 -6.95176
lowerback -0.444583 -11.0769 -16.057
upperback -2.42784 -14.6764 -3.77379
thorax 0.549247 -7.10225 4.09025
lowerneck -6.45616 22.402 0.103598
upperneck 10.2434 32.2631 -13.7911
head 6.50414 14.7434 -1.3572
rclavicle 3.61788e-014 1.11319e-013
rhumerus 28.5262 -24.5702 -62.567
rradius 109.444
rwrist 5.13464
rhand -61.6544 28.0813
rfingers 7.12502
rthumb -33.7254 1.23699
lclavicle 3.61788e-014 1.11319e-013
lhumerus 113.655 -41.5776 42.3553
lradius 37.2572
lwrist -1.31695
lhand -26.354 -4.24795
lfingers 7.12502
lthumb -179.796 -154.268
rfemur -25.5088 16.6092 24.8636
rtibia 28.9136
rfoot -2.02585 26.3579
rtoes 34.3018
lfemur 2.25122 15.7777 3.98496
ltibia 31.0935
lfoot 17.5205 13.1293
ltoes -34.817
182
root -6.02189 18.0096 3.71163 5.14926 33.3768 -6.93759
lowerback -0.499304 -11.0863 -16.0532
upperback -2.42215 -14.6783 -3.71461
thorax 0.600746 -7.10788 4.13432
lowerneck -6.7071 22.4713 -0.181593
upperneck 10.2709 32.3652 -13.6218
head 6.48754 14.7793 -1.25473
rclavicle 1.70955e-014 4.13472e-014
rhumerus 28.9941 -24.7235 -62.2761
rradius 109.398
rwrist 5.73243
rhand -61.6961 26.4516
rfingers 7.12502
rthumb -33.765 -0.384044
lclavicle 1.70955e-014 4.13472e-014
lhumerus 113.654 -41.2461 42.579
lradius 37.4772
lwrist -1.32319
lhand -26.2913 -4.47226
lfingers 7.12502
lthumb -179.736 -154.493
rfemur -25.502 16.7221 24.8766
rtibia 28.8774
rfoot -2.20055 26.3809
rtoes 33.5407
lfemur 2.36216 15.7048 3.94862
ltibia 31.0123
lfoot 17.2982 13.7654
ltoes -33.3023
183
root -6.01901 18.0206 3.71125 5.24868 33.193 -6.92593
lowerback -0.55787 -10.9994 -15.9615
upperback -2.5085 -14.5612 -3.85992
thorax 0.459088 -7.03667 3.96328
lowerneck -6.1475 22.4082 0.351965
upperneck 10.0366 32.1939 -13.7928
head 6.41972 14.7545 -1.43244
rclavicle 3.85642e-014 4.13472e-014
rhumerus 28.8141 -25.1359 -61.8993
rradius 109.465
rwrist 5.60314
rhand -61.5982 27.5355
rfingers 7.12502
rthumb -33.672 0.679533
lclavicle 3.85642e-014 4.13472e-014
lhumerus 113.819 -41.4541 42.5406
lradius 37.7162
lwrist -1.35341
lhand -26.4402 -4.58446
lfingers 7.12502
lthumb -179.879 -154.605
rfemur -25.5636 16.9354 24.8433
rtibia 28.8601
rfoot -2.40247 26.2291
rtoes 32.8233
lfemur 2.35826 15.6365 3.88017
ltibia 30.9563
lfoot 17.149 14.2313
ltoes -32.1844
184
root -6.01726 18.0244 3.7064 5.28944 33.0871 -7.00627
lowerback -0.654658 -10.7234 -15.7306
upperback -2.57205 -14.1833 -4.26346
thorax 0.221351 -6.83181 3.49291
lowerneck -5.03892 22.1279 1.82373
upperneck 9.83998 31.7027 -14.1994
head 6.43046 14.6173 -1.83413
rclavicle 6.12257e-014 -4.13472e-014
rhumerus 27.8546 -26.0907 -61.2783
rradius 109.602
rwrist 5.17401
rhand -61.5416 28.8041
rfingers 7.12502
rthumb -33.6182 1.93639
lclavicle 6.12257e-014 -4.13472e-014
lhumerus 114.651 -42.2237 41.9174
lradius 37.8431
lwrist -1.41668
lhand -26.7182 -4.52867
lfingers 7.12502
lthumb -180.148 -154.549
rfemur -25.6844 17.2082 24.8585
rtibia 28.8808
rfoot -2.17101 26.0044
rtoes 33.2776
lfemur 2.31221 15.6555 3.92059
ltibia 30.8868
lfoot 17.5782 13.7576
ltoes -33.1104
185
root -6.01667 18.0254 3.70144 5.31578 33.0176 -7.00916
lowerback -0.631504 -10.7212 -15.7306
upperback -2.53837 -14.1811 -4.28666
thorax 0.238532 -6.83318 3.47051
lowerneck -5.03089 22.1525 1.84697
upperneck 9.77606 31.7263 -14.2364
head 6.4203 14.6316 -1.84605
rclavicle 2.94201e-014 2.54444e-014
rhumerus 27.9815 -26.1989 -60.9833
rradius 109.482
rwrist 5.54379
rhand -61.8445 27.7606
rfingers 7.12502
rthumb -33.906 0.956026
lclavicle 2.94201e-014 2.54444e-014
lhumerus 114.819 -42.1054 41.9751
lradius 37.8
lwrist -1.641
lhand -26.8125 -4.55468
lfingers 7.12502
lthumb -180.239 -154.575
rfemur -25.7503 17.3753 24.8368
rtibia 28.9095
rfoot -1.88684 25.8241
rtoes 33.8342
lfemur 2.30755 15.6936 3.91974
ltibia 30.8219
lfoot 18.0889 13.2187
ltoes -34.0639
